<svg width="200" height="40" viewBox="0 0 1422 641" fill="none" xmlns="http://www.w3.org/2000/svg">
<path d="M286.5 491H167.5V263L99.5 266V157.5H354.5V266L286.5 263V491ZM606.129 290.5C628.462 313.167 639.629 341 639.629 374C639.629 407 628.462 435 606.129 458C580.462 484.333 544.129 497.5 497.129 497.5C450.129 497.5 413.796 484.333 388.129 458C365.796 435 354.629 407 354.629 374C354.629 341 365.796 313.167 388.129 290.5C413.796 264.167 450.129 251 497.129 251C544.129 251 580.462 264.167 606.129 290.5ZM519.129 349C513.796 343.667 506.462 341 497.129 341C487.796 341 480.462 343.667 475.129 349C468.462 355 465.129 363.333 465.129 374C465.129 385 468.462 393.5 475.129 399.5C480.462 404.833 487.796 407.5 497.129 407.5C506.462 407.5 513.796 404.833 519.129 399.5C525.796 393.5 529.129 385 529.129 374C529.129 363.333 525.796 355 519.129 349ZM845.617 491H687.117V157.5H815.617C879.951 157.5 929.117 174.333 963.117 208C993.117 238 1008.12 278.167 1008.12 328.5C1008.12 376.833 993.784 415.333 965.117 444C934.451 475.333 894.617 491 845.617 491ZM807.117 259.5V389H816.117C838.784 389 855.951 383.833 867.617 373.5C880.617 362.167 887.117 346.167 887.117 325.5C887.117 304.5 880.617 287.833 867.617 275.5C856.284 264.833 840.451 259.5 820.117 259.5H807.117ZM1291.68 290.5C1314.01 313.167 1325.18 341 1325.18 374C1325.18 407 1314.01 435 1291.68 458C1266.01 484.333 1229.68 497.5 1182.68 497.5C1135.68 497.5 1099.34 484.333 1073.68 458C1051.34 435 1040.18 407 1040.18 374C1040.18 341 1051.34 313.167 1073.68 290.5C1099.34 264.167 1135.68 251 1182.68 251C1229.68 251 1266.01 264.167 1291.68 290.5ZM1204.68 349C1199.34 343.667 1192.01 341 1182.68 341C1173.34 341 1166.01 343.667 1160.68 349C1154.01 355 1150.68 363.333 1150.68 374C1150.68 385 1154.01 393.5 1160.68 399.5C1166.01 404.833 1173.34 407.5 1182.68 407.5C1192.01 407.5 1199.34 404.833 1204.68 399.5C1211.34 393.5 1214.68 385 1214.68 374C1214.68 363.333 1211.34 355 1204.68 349Z" fill="white"/>
<path d="M286.5 491V501H296.5V491H286.5ZM167.5 491H157.5V501H167.5V491ZM167.5 263H177.5V252.549L167.059 253.01L167.5 263ZM99.5 266H89.5V276.451L99.9407 275.99L99.5 266ZM99.5 157.5V147.5H89.5V157.5H99.5ZM354.5 157.5H364.5V147.5H354.5V157.5ZM354.5 266L354.059 275.99L364.5 276.451V266H354.5ZM286.5 263L286.941 253.01L276.5 252.549V263H286.5ZM286.5 481H167.5V501H286.5V481ZM177.5 491V263H157.5V491H177.5ZM167.059 253.01L99.0593 256.01L99.9407 275.99L167.941 272.99L167.059 253.01ZM109.5 266V157.5H89.5V266H109.5ZM99.5 167.5H354.5V147.5H99.5V167.5ZM344.5 157.5V266H364.5V157.5H344.5ZM354.941 256.01L286.941 253.01L286.059 272.99L354.059 275.99L354.941 256.01ZM276.5 263V491H296.5V263H276.5ZM606.129 290.5L598.968 297.48L598.987 297.499L599.006 297.518L606.129 290.5ZM606.129 458L613.29 464.98L613.297 464.973L613.303 464.966L606.129 458ZM388.129 458L380.955 464.966L380.961 464.973L380.968 464.98L388.129 458ZM388.129 290.5L395.252 297.518L395.271 297.499L395.29 297.48L388.129 290.5ZM519.129 349L512.058 356.071L512.244 356.257L512.439 356.433L519.129 349ZM475.129 349L481.819 356.433L482.014 356.257L482.2 356.071L475.129 349ZM475.129 399.5L482.2 392.429L482.014 392.243L481.819 392.067L475.129 399.5ZM519.129 399.5L512.439 392.067L512.244 392.243L512.058 392.429L519.129 399.5ZM599.006 297.518C619.421 318.238 629.629 343.518 629.629 374H649.629C649.629 338.482 637.504 308.095 613.252 283.481L599.006 297.518ZM629.629 374C629.629 404.484 619.417 429.96 598.955 451.034L613.303 464.966C637.507 440.04 649.629 409.516 649.629 374H629.629ZM598.968 451.02C575.671 474.922 542.222 487.5 497.129 487.5V507.5C546.036 507.5 585.254 493.745 613.29 464.98L598.968 451.02ZM497.129 487.5C452.036 487.5 418.587 474.922 395.29 451.02L380.968 464.98C409.004 493.745 448.222 507.5 497.129 507.5V487.5ZM395.303 451.034C374.84 429.96 364.629 404.484 364.629 374H344.629C344.629 409.516 356.751 440.04 380.955 464.966L395.303 451.034ZM364.629 374C364.629 343.518 374.837 318.238 395.252 297.518L381.006 283.481C356.754 308.095 344.629 338.482 344.629 374H364.629ZM395.29 297.48C418.587 273.578 452.036 261 497.129 261V241C448.222 241 409.004 254.755 380.968 283.52L395.29 297.48ZM497.129 261C542.222 261 575.671 273.578 598.968 297.48L613.29 283.52C585.254 254.755 546.036 241 497.129 241V261ZM526.2 341.929C518.567 334.296 508.447 331 497.129 331V351C504.477 351 509.024 353.037 512.058 356.071L526.2 341.929ZM497.129 331C485.811 331 475.691 334.296 468.058 341.929L482.2 356.071C485.234 353.037 489.78 351 497.129 351V331ZM468.439 341.567C459.266 349.823 455.129 361.084 455.129 374H475.129C475.129 365.582 477.658 360.177 481.819 356.433L468.439 341.567ZM455.129 374C455.129 387.141 459.2 398.617 468.439 406.933L481.819 392.067C477.725 388.383 475.129 382.859 475.129 374H455.129ZM468.058 406.571C475.691 414.204 485.811 417.5 497.129 417.5V397.5C489.78 397.5 485.234 395.463 482.2 392.429L468.058 406.571ZM497.129 417.5C508.447 417.5 518.567 414.204 526.2 406.571L512.058 392.429C509.024 395.463 504.477 397.5 497.129 397.5V417.5ZM525.819 406.933C535.058 398.617 539.129 387.141 539.129 374H519.129C519.129 382.859 516.533 388.383 512.439 392.067L525.819 406.933ZM539.129 374C539.129 361.084 534.992 349.823 525.819 341.567L512.439 356.433C516.599 360.177 519.129 365.582 519.129 374H539.129ZM687.117 491H677.117V501H687.117V491ZM687.117 157.5V147.5H677.117V157.5H687.117ZM963.117 208L970.188 200.929L970.171 200.911L970.153 200.894L963.117 208ZM965.117 444L958.046 436.929L958.008 436.967L957.971 437.005L965.117 444ZM807.117 259.5V249.5H797.117V259.5H807.117ZM807.117 389H797.117V399H807.117V389ZM867.617 373.5L861.046 365.962L861.016 365.988L860.987 366.014L867.617 373.5ZM867.617 275.5L874.5 268.245L874.485 268.232L874.471 268.218L867.617 275.5ZM845.617 481H687.117V501H845.617V481ZM697.117 491V157.5H677.117V491H697.117ZM687.117 167.5H815.617V147.5H687.117V167.5ZM815.617 167.5C878.249 167.5 924.526 183.86 956.081 215.106L970.153 200.894C933.708 164.806 881.652 147.5 815.617 147.5V167.5ZM956.046 215.071C983.826 242.851 998.117 280.288 998.117 328.5H1018.12C1018.12 276.045 1002.41 233.149 970.188 200.929L956.046 215.071ZM998.117 328.5C998.117 374.728 984.483 410.492 958.046 436.929L972.188 451.071C1003.08 420.175 1018.12 378.939 1018.12 328.5H998.117ZM957.971 437.005C929.415 466.182 892.275 481 845.617 481V501C896.96 501 939.486 484.485 972.264 450.995L957.971 437.005ZM797.117 259.5V389H817.117V259.5H797.117ZM807.117 399H816.117V379H807.117V399ZM816.117 399C840.136 399 860.074 393.54 874.248 380.986L860.987 366.014C851.827 374.127 837.432 379 816.117 379V399ZM874.189 381.038C889.799 367.428 897.117 348.429 897.117 325.5H877.117C877.117 343.904 871.435 356.905 861.046 365.962L874.189 381.038ZM897.117 325.5C897.117 302.269 889.834 282.793 874.5 268.245L860.735 282.755C871.401 292.874 877.117 306.731 877.117 325.5H897.117ZM874.471 268.218C860.769 255.322 842.193 249.5 820.117 249.5V269.5C838.708 269.5 851.798 274.344 860.764 282.782L874.471 268.218ZM820.117 249.5H807.117V269.5H820.117V249.5ZM1291.68 290.5L1284.51 297.48L1284.53 297.499L1284.55 297.518L1291.68 290.5ZM1291.68 458L1298.84 464.98L1298.84 464.973L1298.85 464.966L1291.68 458ZM1073.68 458L1066.5 464.966L1066.51 464.973L1066.51 464.98L1073.68 458ZM1073.68 290.5L1080.8 297.518L1080.82 297.499L1080.84 297.48L1073.68 290.5ZM1204.68 349L1197.6 356.071L1197.79 356.257L1197.99 356.433L1204.68 349ZM1160.68 349L1167.37 356.433L1167.56 356.257L1167.75 356.071L1160.68 349ZM1160.68 399.5L1167.75 392.429L1167.56 392.243L1167.37 392.067L1160.68 399.5ZM1204.68 399.5L1197.99 392.067L1197.79 392.243L1197.6 392.429L1204.68 399.5ZM1284.55 297.518C1304.97 318.238 1315.18 343.518 1315.18 374H1335.18C1335.18 338.482 1323.05 308.095 1298.8 283.481L1284.55 297.518ZM1315.18 374C1315.18 404.484 1304.96 429.96 1284.5 451.034L1298.85 464.966C1323.05 440.04 1335.18 409.516 1335.18 374H1315.18ZM1284.51 451.02C1261.22 474.922 1227.77 487.5 1182.68 487.5V507.5C1231.58 507.5 1270.8 493.745 1298.84 464.98L1284.51 451.02ZM1182.68 487.5C1137.58 487.5 1104.13 474.922 1080.84 451.02L1066.51 464.98C1094.55 493.745 1133.77 507.5 1182.68 507.5V487.5ZM1080.85 451.034C1060.39 429.96 1050.18 404.484 1050.18 374H1030.18C1030.18 409.516 1042.3 440.04 1066.5 464.966L1080.85 451.034ZM1050.18 374C1050.18 343.518 1060.38 318.238 1080.8 297.518L1066.55 283.481C1042.3 308.095 1030.18 338.482 1030.18 374H1050.18ZM1080.84 297.48C1104.13 273.578 1137.58 261 1182.68 261V241C1133.77 241 1094.55 254.755 1066.51 283.52L1080.84 297.48ZM1182.68 261C1227.77 261 1261.22 273.578 1284.51 297.48L1298.84 283.52C1270.8 254.755 1231.58 241 1182.68 241V261ZM1211.75 341.929C1204.11 334.296 1193.99 331 1182.68 331V351C1190.02 351 1194.57 353.037 1197.6 356.071L1211.75 341.929ZM1182.68 331C1171.36 331 1161.24 334.296 1153.6 341.929L1167.75 356.071C1170.78 353.037 1175.33 351 1182.68 351V331ZM1153.99 341.567C1144.81 349.823 1140.68 361.084 1140.68 374H1160.68C1160.68 365.582 1163.21 360.177 1167.37 356.433L1153.99 341.567ZM1140.68 374C1140.68 387.141 1144.75 398.617 1153.99 406.933L1167.37 392.067C1163.27 388.383 1160.68 382.859 1160.68 374H1140.68ZM1153.6 406.571C1161.24 414.204 1171.36 417.5 1182.68 417.5V397.5C1175.33 397.5 1170.78 395.463 1167.75 392.429L1153.6 406.571ZM1182.68 417.5C1193.99 417.5 1204.11 414.204 1211.75 406.571L1197.6 392.429C1194.57 395.463 1190.02 397.5 1182.68 397.5V417.5ZM1211.37 406.933C1220.61 398.617 1224.68 387.141 1224.68 374H1204.68C1204.68 382.859 1202.08 388.383 1197.99 392.067L1211.37 406.933ZM1224.68 374C1224.68 361.084 1220.54 349.823 1211.37 341.567L1197.99 356.433C1202.15 360.177 1204.68 365.582 1204.68 374H1224.68Z" fill="black"/>
</svg>
