<svg width="231" height="49" viewBox="0 0 231 49" fill="none" xmlns="http://www.w3.org/2000/svg">
<path d="M24.4617 30.1133H11.5886L8.79565 39H0.924561L13.6453 2.36133H22.6589L35.405 39H27.2546L24.4617 30.1133ZM13.239 24.375H22.8113L18.114 9.36914H17.9363L13.239 24.375Z" fill="#0071E3"/>
<path d="M51.912 10.7148C53.6893 10.7148 55.2805 11.0449 56.6854 11.7051C58.1073 12.3652 59.3091 13.3132 60.2909 14.5488C61.2896 15.7676 62.0513 17.2656 62.576 19.043C63.1177 20.8034 63.3885 22.7923 63.3885 25.0098C63.3885 27.2272 63.1262 29.2246 62.6014 31.002C62.0767 32.7624 61.315 34.2604 60.3163 35.4961C59.3345 36.7318 58.1412 37.6797 56.7362 38.3398C55.3313 39 53.757 39.3301 52.0135 39.3301C49.9823 39.3301 48.2134 38.89 46.7069 38.0098C45.2173 37.1296 44.0917 35.8939 43.33 34.3027H43.1776V47.7852H35.7635V11.0449H43.076V15.8184H43.2284C43.6008 15.0397 44.0747 14.3372 44.6503 13.7109C45.2258 13.0677 45.8859 12.526 46.6307 12.0859C47.3925 11.6458 48.2134 11.3073 49.0936 11.0703C49.9908 10.8333 50.9302 10.7148 51.912 10.7148ZM49.4491 33.3379C50.4139 33.3379 51.2857 33.1432 52.0643 32.7539C52.843 32.3646 53.5031 31.806 54.0448 31.0781C54.6034 30.3503 55.035 29.4785 55.3397 28.4629C55.6444 27.4303 55.7967 26.2793 55.7967 25.0098C55.7967 23.7572 55.6444 22.623 55.3397 21.6074C55.035 20.5749 54.6034 19.7031 54.0448 18.9922C53.5031 18.2643 52.843 17.7057 52.0643 17.3164C51.2857 16.9102 50.4139 16.707 49.4491 16.707C48.5012 16.707 47.6379 16.9102 46.8592 17.3164C46.0975 17.7057 45.4374 18.2643 44.8788 18.9922C44.3371 19.7201 43.9139 20.6003 43.6092 21.6328C43.3046 22.6484 43.1522 23.7826 43.1522 25.0352C43.1522 26.2878 43.3046 27.4303 43.6092 28.4629C43.9139 29.4785 44.3371 30.3503 44.8788 31.0781C45.4374 31.806 46.0975 32.3646 46.8592 32.7539C47.6379 33.1432 48.5012 33.3379 49.4491 33.3379ZM80.3779 10.7148C82.1553 10.7148 83.7464 11.0449 85.1514 11.7051C86.5732 12.3652 87.7751 13.3132 88.7568 14.5488C89.7555 15.7676 90.5172 17.2656 91.042 19.043C91.5837 20.8034 91.8545 22.7923 91.8545 25.0098C91.8545 27.2272 91.5921 29.2246 91.0674 31.002C90.5426 32.7624 89.7809 34.2604 88.7822 35.4961C87.8004 36.7318 86.6071 37.6797 85.2021 38.3398C83.7972 39 82.223 39.3301 80.4795 39.3301C78.4482 39.3301 76.6794 38.89 75.1728 38.0098C73.6833 37.1296 72.5576 35.8939 71.7959 34.3027H71.6435V47.7852H64.2295V11.0449H71.542V15.8184H71.6943C72.0667 15.0397 72.5407 14.3372 73.1162 13.7109C73.6917 13.0677 74.3519 12.526 75.0967 12.0859C75.8584 11.6458 76.6794 11.3073 77.5596 11.0703C78.4567 10.8333 79.3962 10.7148 80.3779 10.7148ZM77.915 33.3379C78.8799 33.3379 79.7516 33.1432 80.5303 32.7539C81.3089 32.3646 81.9691 31.806 82.5107 31.0781C83.0693 30.3503 83.501 29.4785 83.8057 28.4629C84.1103 27.4303 84.2627 26.2793 84.2627 25.0098C84.2627 23.7572 84.1103 22.623 83.8057 21.6074C83.501 20.5749 83.0693 19.7031 82.5107 18.9922C81.9691 18.2643 81.3089 17.7057 80.5303 17.3164C79.7516 16.9102 78.8799 16.707 77.915 16.707C76.9671 16.707 76.1038 16.9102 75.3252 17.3164C74.5635 17.7057 73.9033 18.2643 73.3447 18.9922C72.8031 19.7201 72.3799 20.6003 72.0752 21.6328C71.7705 22.6484 71.6182 23.7826 71.6182 25.0352C71.6182 26.2878 71.7705 27.4303 72.0752 28.4629C72.3799 29.4785 72.8031 30.3503 73.3447 31.0781C73.9033 31.806 74.5635 32.3646 75.3252 32.7539C76.1038 33.1432 76.9671 33.3379 77.915 33.3379ZM96.0185 0.609375H103.433V39H96.0185V0.609375ZM121.13 16.0977C120.284 16.0977 119.496 16.25 118.769 16.5547C118.058 16.8424 117.431 17.2572 116.89 17.7988C116.365 18.3236 115.933 18.9583 115.595 19.7031C115.273 20.431 115.078 21.2435 115.011 22.1406H127.071C127.037 21.2266 126.868 20.3971 126.563 19.6523C126.259 18.9076 125.844 18.2728 125.319 17.748C124.812 17.2233 124.202 16.8171 123.491 16.5293C122.78 16.2415 121.993 16.0977 121.13 16.0977ZM134.003 30.4688C133.8 31.8229 133.343 33.0586 132.632 34.1758C131.921 35.276 131.015 36.224 129.915 37.0195C128.815 37.7982 127.528 38.4076 126.056 38.8477C124.6 39.2708 123.026 39.4824 121.333 39.4824C119.2 39.4824 117.287 39.1523 115.595 38.4922C113.902 37.832 112.463 36.8841 111.278 35.6484C110.11 34.4128 109.205 32.9062 108.562 31.1289C107.935 29.3516 107.622 27.3542 107.622 25.1367C107.622 22.9193 107.935 20.9134 108.562 19.1191C109.188 17.3249 110.085 15.793 111.253 14.5234C112.421 13.2539 113.834 12.2806 115.493 11.6035C117.152 10.9095 119.006 10.5625 121.054 10.5625C123.068 10.5625 124.888 10.8926 126.513 11.5527C128.138 12.196 129.517 13.1185 130.651 14.3203C131.802 15.5221 132.683 16.9779 133.292 18.6875C133.918 20.3971 134.231 22.3184 134.231 24.4512V26.7363H114.935V27.1934C114.935 28.209 115.087 29.1315 115.392 29.9609C115.713 30.7904 116.153 31.5013 116.712 32.0938C117.287 32.6862 117.973 33.1432 118.769 33.4648C119.581 33.7865 120.478 33.9473 121.46 33.9473C122.865 33.9473 124.075 33.6426 125.091 33.0332C126.123 32.4069 126.817 31.5521 127.173 30.4688H134.003Z" fill="white"/>
<path d="M161.363 21.251C161.233 20.5511 160.989 19.9001 160.631 19.2979C160.273 18.6794 159.801 18.1423 159.215 17.6865C158.645 17.2308 157.97 16.8727 157.188 16.6123C156.407 16.3519 155.52 16.2217 154.527 16.2217C153.372 16.2217 152.322 16.4495 151.378 16.9053C150.434 17.361 149.62 18.012 148.936 18.8584C148.269 19.6885 147.748 20.6976 147.374 21.8857C146.999 23.0739 146.812 24.3923 146.812 25.8408C146.812 27.3382 146.999 28.681 147.374 29.8691C147.748 31.0573 148.277 32.0664 148.961 32.8965C149.644 33.7266 150.458 34.3613 151.402 34.8008C152.362 35.2402 153.42 35.46 154.576 35.46C156.415 35.46 157.921 35.0449 159.093 34.2148C160.264 33.3848 161.038 32.1722 161.412 30.5771H165.587C165.408 31.863 165.009 33.0348 164.39 34.0928C163.788 35.1507 163.007 36.0622 162.047 36.8271C161.086 37.5921 159.971 38.1862 158.702 38.6094C157.432 39.0326 156.049 39.2441 154.552 39.2441C152.745 39.2441 151.101 38.9349 149.62 38.3164C148.139 37.6979 146.869 36.8109 145.811 35.6553C144.753 34.4834 143.931 33.0755 143.346 31.4316C142.776 29.7715 142.491 27.9079 142.491 25.8408C142.491 23.8226 142.776 21.9915 143.346 20.3477C143.931 18.6875 144.745 17.2715 145.787 16.0996C146.845 14.9277 148.106 14.0244 149.571 13.3896C151.052 12.7549 152.696 12.4375 154.503 12.4375C156.13 12.4375 157.595 12.6816 158.897 13.1699C160.199 13.6582 161.322 14.3092 162.266 15.123C163.21 15.9368 163.959 16.8727 164.512 17.9307C165.066 18.9886 165.408 20.0954 165.538 21.251H161.363ZM174.846 13.208H179.009V39H174.846V13.208ZM176.927 9.04492C176.56 9.04492 176.217 8.98112 175.898 8.85352C175.579 8.70996 175.3 8.51855 175.061 8.2793C174.822 8.04004 174.63 7.7609 174.487 7.44189C174.359 7.12288 174.295 6.77995 174.295 6.41309C174.295 6.04622 174.359 5.70329 174.487 5.38428C174.63 5.06527 174.822 4.78613 175.061 4.54688C175.3 4.30762 175.579 4.12419 175.898 3.99658C176.217 3.85303 176.56 3.78125 176.927 3.78125C177.294 3.78125 177.637 3.85303 177.956 3.99658C178.275 4.12419 178.554 4.30762 178.793 4.54688C179.033 4.78613 179.216 5.06527 179.344 5.38428C179.487 5.70329 179.559 6.04622 179.559 6.41309C179.559 6.77995 179.487 7.12288 179.344 7.44189C179.216 7.7609 179.033 8.04004 178.793 8.2793C178.554 8.51855 178.275 8.70996 177.956 8.85352C177.637 8.98112 177.294 9.04492 176.927 9.04492ZM195.321 7.39404V13.208H200.346V16.6533H195.321V32.1333C195.321 33.3296 195.576 34.2069 196.087 34.7651C196.613 35.3075 197.427 35.5786 198.527 35.5786C198.655 35.5786 198.806 35.5786 198.982 35.5786C199.157 35.5627 199.333 35.5547 199.508 35.5547C199.684 35.5387 199.843 35.5228 199.987 35.5068C200.13 35.4909 200.242 35.4749 200.322 35.459V38.9761C200.066 39.0399 199.676 39.0877 199.149 39.1196C198.639 39.1675 198.136 39.1914 197.642 39.1914C196.478 39.1914 195.481 39.0638 194.651 38.8086C193.838 38.5534 193.168 38.1546 192.641 37.6123C192.131 37.054 191.756 36.3442 191.517 35.4829C191.278 34.6056 191.158 33.5449 191.158 32.3008V16.6533H187.569V13.208H191.158V7.39404H195.321ZM212.064 48.355C211.793 48.355 211.482 48.339 211.131 48.3071C210.796 48.2752 210.501 48.2354 210.246 48.1875V44.6704C210.485 44.7183 210.756 44.7502 211.06 44.7661C211.379 44.798 211.674 44.814 211.945 44.814C212.535 44.814 213.061 44.7342 213.524 44.5747C214.002 44.4312 214.433 44.1919 214.816 43.8569C215.199 43.522 215.534 43.0833 215.821 42.541C216.124 41.9987 216.411 41.3368 216.682 40.5552L217.185 39.0239L207.638 13.208H212.064L219.29 34.7651H219.386L226.611 13.208H230.99L220.893 40.5791C220.335 42.0785 219.777 43.3226 219.218 44.3115C218.66 45.3164 218.038 46.1139 217.352 46.7041C216.682 47.3102 215.916 47.7329 215.055 47.9722C214.21 48.2274 213.213 48.355 212.064 48.355Z" fill="white" fill-opacity="0.76"/>
</svg>
